<svg xmlns="http://www.w3.org/2000/svg" viewBox="1200 0 1200 800" width="1200" height="800"><defs><linearGradient id="sky" x1="0" y1="0" x2="1" y2="0">
    <stop offset="0" stop-color="#101822"/><stop offset="0.5" stop-color="#4a6076"/>
    <stop offset="1" stop-color="#12202a"/></linearGradient></defs>
  <rect x="0" y="0" width="2400" height="800" fill="url(#sky)"/>
  <circle cx="1754" cy="469" r="111" fill="#fff" opacity="0.070"/><circle cx="1043" cy="334" r="94" fill="#fff" opacity="0.078"/><circle cx="1128" cy="472" r="82" fill="#fff" opacity="0.087"/><circle cx="2104" cy="284" r="167" fill="#fff" opacity="0.076"/><circle cx="987" cy="462" r="159" fill="#fff" opacity="0.083"/><circle cx="970" cy="235" r="178" fill="#fff" opacity="0.073"/><circle cx="1487" cy="164" r="82" fill="#fff" opacity="0.063"/><circle cx="1749" cy="123" r="128" fill="#fff" opacity="0.068"/><circle cx="1841" cy="288" r="152" fill="#fff" opacity="0.089"/><circle cx="2288" cy="162" r="178" fill="#fff" opacity="0.066"/><circle cx="911" cy="700" r="178" fill="#fff" opacity="0.089"/><circle cx="1564" cy="212" r="115" fill="#fff" opacity="0.088"/><circle cx="758" cy="532" r="105" fill="#fff" opacity="0.087"/><circle cx="820" cy="117" r="88" fill="#fff" opacity="0.041"/>
  <path d="M0 544 Q 600.0 440 1200.0 528 T 2400 480 L 2400 800 L 0 800 Z"
        fill="#0a1016" opacity="0.85"/>
  <line x1="0" y1="400" x2="2400" y2="400" stroke="#fff" stroke-width="1" opacity="0.12"/></svg>